<?xml version="1.0" encoding="UTF-8"?><svg xmlns="http://www.w3.org/2000/svg" viewBox="0 0 2306.21 442.26"><defs><style>.cls-1{fill:#3e5c77;}.cls-1,.cls-2{stroke-width:0px;}.cls-2{fill:#da1c5c;}</style></defs><g id="Layer_1"><rect class="cls-1" x="47.83" y="36.17" width="16.49" height="16.49"/><rect class="cls-1" x="27.28" y="36.7" width="16.49" height="16.49"/><rect class="cls-1" x="17" y="56.38" width="16.49" height="16.49"/><rect class="cls-1" x="38.31" y="56.38" width="16.49" height="16.49"/><rect class="cls-1" x="27.28" y="76.05" width="16.49" height="16.49"/><rect class="cls-1" x="48.58" y="76.05" width="16.49" height="16.49"/><rect class="cls-1" x="38.31" y="95.73" width="16.49" height="16.49"/><rect class="cls-1" x="59.61" y="95.73" width="16.49" height="16.49"/><rect class="cls-1" x="38.31" y="15.82" width="16.49" height="16.49"/><rect class="cls-1" x="59.61" y="15.82" width="16.49" height="16.49"/><rect class="cls-1" x="48.58" y="115.4" width="16.49" height="16.49"/><rect class="cls-1" x="69.89" y="115.4" width="16.49" height="16.49"/><rect class="cls-1" x="59.61" y="135.08" width="16.49" height="16.49"/><rect class="cls-1" x="80.92" y="135.08" width="16.49" height="16.49"/><rect class="cls-1" x="102.22" y="135.08" width="16.49" height="16.49"/><rect class="cls-1" x="123.53" y="135.08" width="16.49" height="16.49"/><rect class="cls-1" x="144.83" y="135.08" width="16.49" height="16.49"/><rect class="cls-1" x="166.14" y="135.08" width="16.49" height="16.49"/><rect class="cls-1" x="187.45" y="135.08" width="16.49" height="16.49"/><rect class="cls-1" x="208.75" y="135.08" width="16.49" height="16.49"/><rect class="cls-1" x="230.06" y="135.08" width="16.49" height="16.49"/><rect class="cls-1" x="251.18" y="135.08" width="16.49" height="16.49"/><rect class="cls-1" x="69.89" y="154.75" width="16.49" height="16.49"/><rect class="cls-1" x="91.19" y="154.75" width="16.49" height="16.49"/><rect class="cls-1" x="261.63" y="154.75" width="16.49" height="16.49"/><rect class="cls-1" x="282.94" y="154.75" width="16.49" height="16.49"/><rect class="cls-1" x="80.92" y="174.43" width="16.49" height="16.49"/><rect class="cls-1" x="102.22" y="174.43" width="16.49" height="16.49"/><rect class="cls-1" x="293.97" y="174.43" width="16.49" height="16.49"/><rect class="cls-1" x="315.28" y="174.43" width="16.49" height="16.49"/><rect class="cls-1" x="91.19" y="194.1" width="16.49" height="16.49"/><rect class="cls-1" x="112.5" y="194.1" width="16.49" height="16.49"/><rect class="cls-1" x="155.11" y="181.1" width="16.49" height="16.49"/><rect class="cls-1" x="197.72" y="194.1" width="16.49" height="16.49"/><rect class="cls-1" x="219.02" y="194.1" width="16.49" height="16.49"/><rect class="cls-1" x="240.33" y="194.1" width="16.49" height="16.49"/><rect class="cls-1" x="250.44" y="213.51" width="16.49" height="16.49"/><rect class="cls-1" x="325.55" y="194.1" width="16.49" height="16.49"/><rect class="cls-1" x="346.86" y="194.1" width="16.49" height="16.49"/><rect class="cls-1" x="102.22" y="213.78" width="16.49" height="16.49"/><rect class="cls-1" x="123.53" y="213.78" width="16.49" height="16.49"/><rect class="cls-1" x="187.45" y="213.78" width="16.49" height="16.49"/><rect class="cls-1" x="357.89" y="213.78" width="16.49" height="16.49"/><rect class="cls-1" x="133.8" y="233.45" width="16.49" height="16.49"/><rect class="cls-1" x="176.41" y="233.45" width="16.49" height="16.49"/><rect class="cls-1" x="240.33" y="233.45" width="16.49" height="16.49"/><rect class="cls-1" x="368.16" y="233.45" width="16.49" height="16.49"/><rect class="cls-1" x="389.47" y="233.45" width="16.49" height="16.49"/><rect class="cls-1" x="144.83" y="253.13" width="16.49" height="16.49"/><rect class="cls-1" x="166.14" y="253.13" width="16.49" height="16.49"/><rect class="cls-1" x="187.45" y="253.13" width="16.49" height="16.49"/><rect class="cls-1" x="208.75" y="253.13" width="16.49" height="16.49"/><rect class="cls-1" x="230.06" y="253.13" width="16.49" height="16.49"/><rect class="cls-1" x="379.19" y="253.13" width="16.49" height="16.49"/><rect class="cls-1" x="400.5" y="253.13" width="16.49" height="16.49"/><rect class="cls-1" x="155.11" y="272.8" width="16.49" height="16.49"/><rect class="cls-1" x="176.41" y="272.8" width="16.49" height="16.49"/><rect class="cls-1" x="389.47" y="272.8" width="16.49" height="16.49"/><rect class="cls-1" x="410.77" y="272.8" width="16.49" height="16.49"/><rect class="cls-1" x="166.14" y="292.48" width="16.49" height="16.49"/><rect class="cls-1" x="187.45" y="292.48" width="16.49" height="16.49"/><rect class="cls-1" x="400.5" y="292.48" width="16.49" height="16.49"/><rect class="cls-1" x="176.41" y="312.15" width="16.49" height="16.49"/><rect class="cls-1" x="197.72" y="312.15" width="16.49" height="16.49"/><rect class="cls-1" x="389.47" y="312.15" width="16.49" height="16.49"/><rect class="cls-1" x="410.77" y="312.15" width="16.49" height="16.49"/><rect class="cls-1" x="187.45" y="331.83" width="16.49" height="16.49"/><rect class="cls-1" x="379.19" y="331.83" width="16.49" height="16.49"/><rect class="cls-1" x="421.8" y="331.83" width="16.49" height="16.49"/><rect class="cls-1" x="443.11" y="331.83" width="16.49" height="16.49"/><rect class="cls-1" x="176.41" y="351.5" width="16.49" height="16.49"/><rect class="cls-1" x="197.72" y="351.5" width="16.49" height="16.49"/><rect class="cls-1" x="282.94" y="351.5" width="16.49" height="16.49"/><rect class="cls-1" x="304.25" y="351.5" width="16.49" height="16.49"/><rect class="cls-1" x="368.16" y="351.5" width="16.49" height="16.49"/><rect class="cls-1" x="187.45" y="371.18" width="16.49" height="16.49"/><rect class="cls-1" x="251.36" y="371.18" width="16.49" height="16.49"/><rect class="cls-1" x="272.67" y="371.18" width="16.49" height="16.49"/><rect class="cls-1" x="293.97" y="371.18" width="16.49" height="16.49"/><rect class="cls-1" x="315.28" y="371.18" width="16.49" height="16.49"/><rect class="cls-1" x="357.89" y="371.18" width="16.49" height="16.49"/><rect class="cls-1" x="176.41" y="390.85" width="16.49" height="16.49"/><rect class="cls-1" x="197.72" y="390.85" width="16.49" height="16.49"/><rect class="cls-1" x="219.02" y="390.85" width="16.49" height="16.49"/><rect class="cls-1" x="240.33" y="390.85" width="16.49" height="16.49"/><rect class="cls-1" x="304.25" y="390.85" width="16.49" height="16.49"/><rect class="cls-1" x="325.55" y="390.85" width="16.49" height="16.49"/><rect class="cls-1" x="346.86" y="390.85" width="16.49" height="16.49"/><rect class="cls-1" x="368.16" y="390.85" width="16.49" height="16.49"/><rect class="cls-1" x="187.45" y="410.53" width="16.49" height="16.49"/><rect class="cls-1" x="208.75" y="410.53" width="16.49" height="16.49"/><rect class="cls-1" x="230.06" y="410.53" width="16.49" height="16.49"/><rect class="cls-1" x="315.28" y="410.53" width="16.49" height="16.49"/><rect class="cls-1" x="336.58" y="410.53" width="16.49" height="16.49"/><rect class="cls-1" x="357.89" y="410.53" width="16.49" height="16.49"/></g><g id="Layer_3"><path class="cls-2" d="m525.28,170.43h-18.28v-18.28h18.28v18.28Zm0,25.38h-18.28v-18.28h18.28v18.28Zm0,25.38h-18.28v-18.28h18.28v18.28Zm0,25.38h-18.28v-18.28h18.28v18.28Zm0,25.38h-18.28v-18.28h18.28v18.28Zm0,25.38h-18.28v-18.28h18.28v18.28Zm25.38-126.92h-18.28v-18.28h18.28v18.28Zm0,25.38h-18.28v-18.28h18.28v18.28Zm0,25.38h-18.28v-18.28h18.28v18.28Zm0,25.38h-18.28v-18.28h18.28v18.28Zm0,25.38h-18.28v-18.28h18.28v18.28Zm0,25.38h-18.28v-18.28h18.28v18.28Zm25.38-126.92h-18.28v-18.28h18.28v18.28Zm0,126.92h-18.28v-18.28h18.28v18.28Zm25.38-126.92h-18.28v-18.28h18.28v18.28Zm0,25.38h-18.28v-18.28h18.28v18.28Zm0,101.53h-18.28v-18.28h18.28v18.28Zm25.38-101.53h-18.28v-18.28h18.28v18.28Zm0,25.38h-18.28v-18.28h18.28v18.28Zm0,25.38h-18.28v-18.28h18.28v18.28Zm0,25.38h-18.28v-18.28h18.28v18.28Z"/><path class="cls-2" d="m677.58,170.43h-18.28v-18.28h18.28v18.28Zm0,25.38h-18.28v-18.28h18.28v18.28Zm0,25.38h-18.28v-18.28h18.28v18.28Zm0,25.38h-18.28v-18.28h18.28v18.28Zm0,25.38h-18.28v-18.28h18.28v18.28Zm0,25.38h-18.28v-18.28h18.28v18.28Zm25.38-126.92h-18.28v-18.28h18.28v18.28Zm0,25.38h-18.28v-18.28h18.28v18.28Zm0,25.38h-18.28v-18.28h18.28v18.28Zm0,25.38h-18.28v-18.28h18.28v18.28Zm0,25.38h-18.28v-18.28h18.28v18.28Zm0,25.38h-18.28v-18.28h18.28v18.28Zm25.38-126.92h-18.28v-18.28h18.28v18.28Zm0,50.77h-18.28v-18.28h18.28v18.28Zm0,76.15h-18.28v-18.28h18.28v18.28Zm25.38-126.92h-18.28v-18.28h18.28v18.28Zm0,50.77h-18.28v-18.28h18.28v18.28Zm0,76.15h-18.28v-18.28h18.28v18.28Zm25.38-126.92h-18.28v-18.28h18.28v18.28Zm0,126.92h-18.28v-18.28h18.28v18.28Z"/><path class="cls-2" d="m829.87,170.43h-18.28v-18.28h18.28v18.28Zm0,25.38h-18.28v-18.28h18.28v18.28Zm0,25.38h-18.28v-18.28h18.28v18.28Zm0,25.38h-18.28v-18.28h18.28v18.28Zm25.38-76.15h-18.28v-18.28h18.28v18.28Zm0,25.38h-18.28v-18.28h18.28v18.28Zm0,25.38h-18.28v-18.28h18.28v18.28Zm0,25.38h-18.28v-18.28h18.28v18.28Zm0,25.38h-18.28v-18.28h18.28v18.28Zm25.38,0h-18.28v-18.28h18.28v18.28Zm0,25.38h-18.28v-18.28h18.28v18.28Zm25.38-50.77h-18.28v-18.28h18.28v18.28Zm0,25.38h-18.28v-18.28h18.28v18.28Zm25.38-101.53h-18.28v-18.28h18.28v18.28Zm0,25.38h-18.28v-18.28h18.28v18.28Zm0,25.38h-18.28v-18.28h18.28v18.28Z"/><path class="cls-1" d="m979.4,170.43h-18.28v-18.28h18.28v18.28Zm0,25.38h-18.28v-18.28h18.28v18.28Zm0,25.38h-18.28v-18.28h18.28v18.28Zm0,25.38h-18.28v-18.28h18.28v18.28Zm0,25.38h-18.28v-18.28h18.28v18.28Zm0,25.38h-18.28v-18.28h18.28v18.28Zm25.38-126.92h-18.28v-18.28h18.28v18.28Zm0,25.38h-18.28v-18.28h18.28v18.28Zm0,25.38h-18.28v-18.28h18.28v18.28Zm25.38,0h-18.28v-18.28h18.28v18.28Zm0,25.38h-18.28v-18.28h18.28v18.28Zm0,25.38h-18.28v-18.28h18.28v18.28Zm25.38-76.15h-18.28v-18.28h18.28v18.28Zm25.38-25.38h-18.28v-18.28h18.28v18.28Zm0,25.38h-18.28v-18.28h18.28v18.28Zm0,25.38h-18.28v-18.28h18.28v18.28Zm0,25.38h-18.28v-18.28h18.28v18.28Zm0,25.38h-18.28v-18.28h18.28v18.28Zm0,25.38h-18.28v-18.28h18.28v18.28Z"/><path class="cls-1" d="m1131.69,195.81h-18.28v-18.28h18.28v18.28Zm0,25.38h-18.28v-18.28h18.28v18.28Zm0,25.38h-18.28v-18.28h18.28v18.28Zm0,25.38h-18.28v-18.28h18.28v18.28Zm0,25.38h-18.28v-18.28h18.28v18.28Zm25.38-126.92h-18.28v-18.28h18.28v18.28Zm0,76.15h-18.28v-18.28h18.28v18.28Zm25.38-76.15h-18.28v-18.28h18.28v18.28Zm0,76.15h-18.28v-18.28h18.28v18.28Zm25.38-76.15h-18.28v-18.28h18.28v18.28Zm0,25.38h-18.28v-18.28h18.28v18.28Zm0,25.38h-18.28v-18.28h18.28v18.28Zm0,25.38h-18.28v-18.28h18.28v18.28Zm0,25.38h-18.28v-18.28h18.28v18.28Zm0,25.38h-18.28v-18.28h18.28v18.28Zm25.38-101.53h-18.28v-18.28h18.28v18.28Zm0,25.38h-18.28v-18.28h18.28v18.28Zm0,25.38h-18.28v-18.28h18.28v18.28Zm0,25.38h-18.28v-18.28h18.28v18.28Zm0,25.38h-18.28v-18.28h18.28v18.28Z"/><path class="cls-1" d="m1283.99,170.43h-18.28v-18.28h18.28v18.28Zm0,25.38h-18.28v-18.28h18.28v18.28Zm0,25.38h-18.28v-18.28h18.28v18.28Zm0,25.38h-18.28v-18.28h18.28v18.28Zm0,25.38h-18.28v-18.28h18.28v18.28Zm0,25.38h-18.28v-18.28h18.28v18.28Zm25.38-126.92h-18.28v-18.28h18.28v18.28Zm0,25.38h-18.28v-18.28h18.28v18.28Zm0,25.38h-18.28v-18.28h18.28v18.28Zm0,25.38h-18.28v-18.28h18.28v18.28Zm0,25.38h-18.28v-18.28h18.28v18.28Zm0,25.38h-18.28v-18.28h18.28v18.28Zm25.38-126.92h-18.28v-18.28h18.28v18.28Zm0,76.15h-18.28v-18.28h18.28v18.28Zm25.38-76.15h-18.28v-18.28h18.28v18.28Zm0,25.38h-18.28v-18.28h18.28v18.28Zm0,50.77h-18.28v-18.28h18.28v18.28Zm0,25.38h-18.28v-18.28h18.28v18.28Zm25.38-76.15h-18.28v-18.28h18.28v18.28Zm0,25.38h-18.28v-18.28h18.28v18.28Zm0,50.77h-18.28v-18.28h18.28v18.28Zm0,25.38h-18.28v-18.28h18.28v18.28Z"/><path class="cls-1" d="m1436.29,170.43h-18.28v-18.28h18.28v18.28Zm0,25.38h-18.28v-18.28h18.28v18.28Zm0,25.38h-18.28v-18.28h18.28v18.28Zm0,25.38h-18.28v-18.28h18.28v18.28Zm0,25.38h-18.28v-18.28h18.28v18.28Zm0,25.38h-18.28v-18.28h18.28v18.28Zm25.38-126.92h-18.28v-18.28h18.28v18.28Zm0,25.38h-18.28v-18.28h18.28v18.28Zm0,25.38h-18.28v-18.28h18.28v18.28Zm0,25.38h-18.28v-18.28h18.28v18.28Zm0,25.38h-18.28v-18.28h18.28v18.28Zm0,25.38h-18.28v-18.28h18.28v18.28Zm25.38-76.15h-18.28v-18.28h18.28v18.28Zm0,25.38h-18.28v-18.28h18.28v18.28Zm25.38-50.77h-18.28v-18.28h18.28v18.28Zm0,50.77h-18.28v-18.28h18.28v18.28Zm0,25.38h-18.28v-18.28h18.28v18.28Zm25.38-101.53h-18.28v-18.28h18.28v18.28Zm0,101.53h-18.28v-18.28h18.28v18.28Zm0,25.38h-18.28v-18.28h18.28v18.28Z"/><path class="cls-1" d="m1588.58,170.43h-18.28v-18.28h18.28v18.28Zm0,25.38h-18.28v-18.28h18.28v18.28Zm0,25.38h-18.28v-18.28h18.28v18.28Zm0,25.38h-18.28v-18.28h18.28v18.28Zm0,25.38h-18.28v-18.28h18.28v18.28Zm0,25.38h-18.28v-18.28h18.28v18.28Zm25.38-126.92h-18.28v-18.28h18.28v18.28Zm0,25.38h-18.28v-18.28h18.28v18.28Zm0,25.38h-18.28v-18.28h18.28v18.28Zm0,25.38h-18.28v-18.28h18.28v18.28Zm0,25.38h-18.28v-18.28h18.28v18.28Zm0,25.38h-18.28v-18.28h18.28v18.28Zm25.38-126.92h-18.28v-18.28h18.28v18.28Zm0,50.77h-18.28v-18.28h18.28v18.28Zm0,76.15h-18.28v-18.28h18.28v18.28Zm25.38-126.92h-18.28v-18.28h18.28v18.28Zm0,50.77h-18.28v-18.28h18.28v18.28Zm0,76.15h-18.28v-18.28h18.28v18.28Zm25.38-126.92h-18.28v-18.28h18.28v18.28Zm0,126.92h-18.28v-18.28h18.28v18.28Z"/><path class="cls-1" d="m1740.88,170.43h-18.28v-18.28h18.28v18.28Zm25.38,0h-18.28v-18.28h18.28v18.28Zm0,25.38h-18.28v-18.28h18.28v18.28Zm0,25.38h-18.28v-18.28h18.28v18.28Zm0,25.38h-18.28v-18.28h18.28v18.28Zm0,25.38h-18.28v-18.28h18.28v18.28Zm0,25.38h-18.28v-18.28h18.28v18.28Zm25.38-126.92h-18.28v-18.28h18.28v18.28Zm0,25.38h-18.28v-18.28h18.28v18.28Zm0,25.38h-18.28v-18.28h18.28v18.28Zm0,25.38h-18.28v-18.28h18.28v18.28Zm0,25.38h-18.28v-18.28h18.28v18.28Zm0,25.38h-18.28v-18.28h18.28v18.28Zm25.38-126.92h-18.28v-18.28h18.28v18.28Zm25.38,0h-18.28v-18.28h18.28v18.28Z"/><path class="cls-1" d="m1893.17,170.43h-18.28v-18.28h18.28v18.28Zm0,126.92h-18.28v-18.28h18.28v18.28Zm25.38-126.92h-18.28v-18.28h18.28v18.28Zm0,25.38h-18.28v-18.28h18.28v18.28Zm0,25.38h-18.28v-18.28h18.28v18.28Zm0,25.38h-18.28v-18.28h18.28v18.28Zm0,25.38h-18.28v-18.28h18.28v18.28Zm0,25.38h-18.28v-18.28h18.28v18.28Zm25.38-126.92h-18.28v-18.28h18.28v18.28Zm0,25.38h-18.28v-18.28h18.28v18.28Zm0,25.38h-18.28v-18.28h18.28v18.28Zm0,25.38h-18.28v-18.28h18.28v18.28Zm0,25.38h-18.28v-18.28h18.28v18.28Zm0,25.38h-18.28v-18.28h18.28v18.28Zm25.38-126.92h-18.28v-18.28h18.28v18.28Zm0,126.92h-18.28v-18.28h18.28v18.28Z"/><path class="cls-1" d="m2045.47,170.43h-18.28v-18.28h18.28v18.28Zm0,25.38h-18.28v-18.28h18.28v18.28Zm0,25.38h-18.28v-18.28h18.28v18.28Zm0,25.38h-18.28v-18.28h18.28v18.28Zm0,25.38h-18.28v-18.28h18.28v18.28Zm0,25.38h-18.28v-18.28h18.28v18.28Zm25.38-101.53h-18.28v-18.28h18.28v18.28Zm0,25.38h-18.28v-18.28h18.28v18.28Zm25.38,0h-18.28v-18.28h18.28v18.28Zm0,25.38h-18.28v-18.28h18.28v18.28Zm25.38,0h-18.28v-18.28h18.28v18.28Zm0,25.38h-18.28v-18.28h18.28v18.28Zm25.38-101.53h-18.28v-18.28h18.28v18.28Zm0,25.38h-18.28v-18.28h18.28v18.28Zm0,25.38h-18.28v-18.28h18.28v18.28Zm0,25.38h-18.28v-18.28h18.28v18.28Zm0,25.38h-18.28v-18.28h18.28v18.28Zm0,25.38h-18.28v-18.28h18.28v18.28Z"/><path class="cls-1" d="m2197.77,195.81h-18.28v-18.28h18.28v18.28Zm0,25.38h-18.28v-18.28h18.28v18.28Zm0,25.38h-18.28v-18.28h18.28v18.28Zm0,25.38h-18.28v-18.28h18.28v18.28Zm25.38-101.53h-18.28v-18.28h18.28v18.28Zm0,25.38h-18.28v-18.28h18.28v18.28Zm0,25.38h-18.28v-18.28h18.28v18.28Zm0,25.38h-18.28v-18.28h18.28v18.28Zm0,25.38h-18.28v-18.28h18.28v18.28Zm0,25.38h-18.28v-18.28h18.28v18.28Zm25.38-126.92h-18.28v-18.28h18.28v18.28Zm0,126.92h-18.28v-18.28h18.28v18.28Zm25.38-126.92h-18.28v-18.28h18.28v18.28Zm0,76.15h-18.28v-18.28h18.28v18.28Zm0,50.77h-18.28v-18.28h18.28v18.28Zm25.38-101.53h-18.28v-18.28h18.28v18.28Zm0,50.77h-18.28v-18.28h18.28v18.28Zm0,25.38h-18.28v-18.28h18.28v18.28Z"/></g></svg>